<mxfile host="app.diagrams.net" agent="Mozilla/5.0 (Windows NT 10.0; Win64; x64) AppleWebKit/537.36 (KHTML, like Gecko) Chrome/135.0.0.0 Safari/537.36" version="26.2.13">
  <diagram name="Sayfa -1" id="yEYJZWduCS-o3usbfqbT">
    <mxGraphModel grid="0" page="0" gridSize="10" guides="1" tooltips="1" connect="1" arrows="1" fold="1" pageScale="1" pageWidth="827" pageHeight="1169" math="0" shadow="0">
      <root>
        <mxCell id="0" />
        <mxCell id="1" parent="0" />
        <mxCell id="dUpurtsWNDvEeiz36VMN-37" style="edgeStyle=orthogonalEdgeStyle;rounded=0;orthogonalLoop=1;jettySize=auto;html=1;entryX=0.5;entryY=0;entryDx=0;entryDy=0;" edge="1" parent="1" source="dUpurtsWNDvEeiz36VMN-6" target="dUpurtsWNDvEeiz36VMN-36">
          <mxGeometry relative="1" as="geometry" />
        </mxCell>
        <mxCell id="dUpurtsWNDvEeiz36VMN-6" value="" style="ellipse;html=1;shape=startState;fillColor=#000000;strokeColor=#ff0000;" vertex="1" parent="1">
          <mxGeometry x="372.5" y="110" width="55" height="60" as="geometry" />
        </mxCell>
        <mxCell id="dUpurtsWNDvEeiz36VMN-8" value="Start" style="text;html=1;align=center;verticalAlign=middle;resizable=0;points=[];autosize=1;strokeColor=none;fillColor=none;" vertex="1" parent="1">
          <mxGeometry x="446" y="123" width="43" height="26" as="geometry" />
        </mxCell>
        <mxCell id="dUpurtsWNDvEeiz36VMN-33" value="" style="ellipse;html=1;shape=startState;fillColor=#000000;strokeColor=#ff0000;" vertex="1" parent="1">
          <mxGeometry x="330" y="776" width="55" height="60" as="geometry" />
        </mxCell>
        <mxCell id="dUpurtsWNDvEeiz36VMN-34" value="End" style="text;html=1;align=center;verticalAlign=middle;resizable=0;points=[];autosize=1;strokeColor=none;fillColor=none;" vertex="1" parent="1">
          <mxGeometry x="388.5" y="795" width="39" height="26" as="geometry" />
        </mxCell>
        <mxCell id="dUpurtsWNDvEeiz36VMN-40" style="edgeStyle=orthogonalEdgeStyle;rounded=0;orthogonalLoop=1;jettySize=auto;html=1;entryX=0.5;entryY=0;entryDx=0;entryDy=0;" edge="1" parent="1" source="dUpurtsWNDvEeiz36VMN-36" target="dUpurtsWNDvEeiz36VMN-39">
          <mxGeometry relative="1" as="geometry" />
        </mxCell>
        <mxCell id="dUpurtsWNDvEeiz36VMN-36" value="Enter Calorie Calculator Menu" style="rounded=1;whiteSpace=wrap;html=1;" vertex="1" parent="1">
          <mxGeometry x="340" y="200" width="120" height="60" as="geometry" />
        </mxCell>
        <mxCell id="dUpurtsWNDvEeiz36VMN-43" style="edgeStyle=orthogonalEdgeStyle;rounded=0;orthogonalLoop=1;jettySize=auto;html=1;entryX=0.5;entryY=0;entryDx=0;entryDy=0;exitX=0.561;exitY=0.994;exitDx=0;exitDy=0;exitPerimeter=0;" edge="1" parent="1" source="dUpurtsWNDvEeiz36VMN-39" target="dUpurtsWNDvEeiz36VMN-42">
          <mxGeometry relative="1" as="geometry">
            <mxPoint x="401" y="344" as="sourcePoint" />
          </mxGeometry>
        </mxCell>
        <mxCell id="dUpurtsWNDvEeiz36VMN-39" value="Enter Necessary Calculation Values" style="rounded=1;whiteSpace=wrap;html=1;" vertex="1" parent="1">
          <mxGeometry x="341" y="289" width="120" height="60" as="geometry" />
        </mxCell>
        <mxCell id="dUpurtsWNDvEeiz36VMN-49" style="edgeStyle=orthogonalEdgeStyle;rounded=0;orthogonalLoop=1;jettySize=auto;html=1;entryX=0.5;entryY=0;entryDx=0;entryDy=0;" edge="1" parent="1" source="dUpurtsWNDvEeiz36VMN-41" target="dUpurtsWNDvEeiz36VMN-48">
          <mxGeometry relative="1" as="geometry" />
        </mxCell>
        <mxCell id="dUpurtsWNDvEeiz36VMN-41" value="Calculate Calorie Allowance" style="rounded=1;whiteSpace=wrap;html=1;" vertex="1" parent="1">
          <mxGeometry x="340" y="545" width="120" height="60" as="geometry" />
        </mxCell>
        <mxCell id="dUpurtsWNDvEeiz36VMN-46" style="edgeStyle=orthogonalEdgeStyle;rounded=0;orthogonalLoop=1;jettySize=auto;html=1;entryX=1;entryY=0.5;entryDx=0;entryDy=0;" edge="1" parent="1" source="dUpurtsWNDvEeiz36VMN-42" target="dUpurtsWNDvEeiz36VMN-41">
          <mxGeometry relative="1" as="geometry">
            <Array as="points">
              <mxPoint x="530" y="459" />
              <mxPoint x="530" y="575" />
            </Array>
          </mxGeometry>
        </mxCell>
        <mxCell id="NVGThX6rC2CXHncLb8in-3" style="edgeStyle=orthogonalEdgeStyle;rounded=0;orthogonalLoop=1;jettySize=auto;html=1;entryX=0.5;entryY=1;entryDx=0;entryDy=0;" edge="1" parent="1" source="dUpurtsWNDvEeiz36VMN-42" target="NVGThX6rC2CXHncLb8in-1">
          <mxGeometry relative="1" as="geometry" />
        </mxCell>
        <mxCell id="dUpurtsWNDvEeiz36VMN-42" value="Are all values valid?" style="rhombus;whiteSpace=wrap;html=1;" vertex="1" parent="1">
          <mxGeometry x="328" y="400" width="160" height="129" as="geometry" />
        </mxCell>
        <mxCell id="dUpurtsWNDvEeiz36VMN-45" value="NO" style="text;html=1;align=center;verticalAlign=middle;resizable=0;points=[];autosize=1;strokeColor=none;fillColor=none;" vertex="1" parent="1">
          <mxGeometry x="304" y="424" width="36" height="26" as="geometry" />
        </mxCell>
        <mxCell id="dUpurtsWNDvEeiz36VMN-47" value="YES" style="text;html=1;align=center;verticalAlign=middle;resizable=0;points=[];autosize=1;strokeColor=none;fillColor=none;" vertex="1" parent="1">
          <mxGeometry x="472" y="419" width="42" height="26" as="geometry" />
        </mxCell>
        <mxCell id="dUpurtsWNDvEeiz36VMN-48" value="Display Calorie Allowance" style="rounded=1;whiteSpace=wrap;html=1;" vertex="1" parent="1">
          <mxGeometry x="341" y="651" width="120" height="60" as="geometry" />
        </mxCell>
        <mxCell id="dUpurtsWNDvEeiz36VMN-60" style="edgeStyle=orthogonalEdgeStyle;rounded=0;orthogonalLoop=1;jettySize=auto;html=1;entryX=0.5;entryY=0;entryDx=0;entryDy=0;" edge="1" parent="1" source="dUpurtsWNDvEeiz36VMN-51" target="dUpurtsWNDvEeiz36VMN-33">
          <mxGeometry relative="1" as="geometry">
            <Array as="points">
              <mxPoint x="358" y="758" />
              <mxPoint x="358" y="758" />
            </Array>
          </mxGeometry>
        </mxCell>
        <mxCell id="dUpurtsWNDvEeiz36VMN-51" value="" style="shape=line;html=1;strokeWidth=6;strokeColor=#ff0000;" vertex="1" parent="1">
          <mxGeometry x="300" y="734" width="200" height="10" as="geometry" />
        </mxCell>
        <mxCell id="dUpurtsWNDvEeiz36VMN-55" style="edgeStyle=orthogonalEdgeStyle;rounded=0;orthogonalLoop=1;jettySize=auto;html=1;entryX=1;entryY=0.5;entryDx=0;entryDy=0;" edge="1" parent="1" source="dUpurtsWNDvEeiz36VMN-53" target="dUpurtsWNDvEeiz36VMN-39">
          <mxGeometry relative="1" as="geometry">
            <Array as="points">
              <mxPoint x="718" y="854" />
              <mxPoint x="718" y="319" />
            </Array>
          </mxGeometry>
        </mxCell>
        <mxCell id="dUpurtsWNDvEeiz36VMN-53" value="Clear All Values" style="rounded=1;whiteSpace=wrap;html=1;" vertex="1" parent="1">
          <mxGeometry x="551" y="827" width="120" height="60" as="geometry" />
        </mxCell>
        <mxCell id="dUpurtsWNDvEeiz36VMN-63" style="edgeStyle=orthogonalEdgeStyle;rounded=0;orthogonalLoop=1;jettySize=auto;html=1;entryX=0.5;entryY=0;entryDx=0;entryDy=0;" edge="1" parent="1" source="dUpurtsWNDvEeiz36VMN-61" target="dUpurtsWNDvEeiz36VMN-53">
          <mxGeometry relative="1" as="geometry">
            <Array as="points">
              <mxPoint x="611" y="812" />
              <mxPoint x="611" y="812" />
            </Array>
          </mxGeometry>
        </mxCell>
        <mxCell id="dUpurtsWNDvEeiz36VMN-64" style="edgeStyle=orthogonalEdgeStyle;rounded=0;orthogonalLoop=1;jettySize=auto;html=1;entryX=1;entryY=0.25;entryDx=0;entryDy=0;" edge="1" parent="1" source="dUpurtsWNDvEeiz36VMN-61" target="dUpurtsWNDvEeiz36VMN-39">
          <mxGeometry relative="1" as="geometry">
            <Array as="points">
              <mxPoint x="518" y="917" />
              <mxPoint x="751" y="917" />
              <mxPoint x="751" y="304" />
            </Array>
          </mxGeometry>
        </mxCell>
        <mxCell id="dUpurtsWNDvEeiz36VMN-61" value="" style="shape=line;html=1;strokeWidth=6;strokeColor=#ff0000;" vertex="1" parent="1">
          <mxGeometry x="453" y="785" width="200" height="10" as="geometry" />
        </mxCell>
        <mxCell id="dUpurtsWNDvEeiz36VMN-62" style="edgeStyle=orthogonalEdgeStyle;rounded=0;orthogonalLoop=1;jettySize=auto;html=1;entryX=0.489;entryY=0.7;entryDx=0;entryDy=0;entryPerimeter=0;" edge="1" parent="1" source="dUpurtsWNDvEeiz36VMN-51" target="dUpurtsWNDvEeiz36VMN-61">
          <mxGeometry relative="1" as="geometry">
            <Array as="points">
              <mxPoint x="476" y="765" />
              <mxPoint x="551" y="765" />
            </Array>
          </mxGeometry>
        </mxCell>
        <mxCell id="NVGThX6rC2CXHncLb8in-4" style="edgeStyle=orthogonalEdgeStyle;rounded=0;orthogonalLoop=1;jettySize=auto;html=1;entryX=0;entryY=0.5;entryDx=0;entryDy=0;" edge="1" parent="1" source="NVGThX6rC2CXHncLb8in-1" target="dUpurtsWNDvEeiz36VMN-39">
          <mxGeometry relative="1" as="geometry">
            <Array as="points">
              <mxPoint x="200" y="319" />
            </Array>
          </mxGeometry>
        </mxCell>
        <mxCell id="NVGThX6rC2CXHncLb8in-1" value="Display &quot;Invalid Values&quot; Message" style="rounded=1;whiteSpace=wrap;html=1;" vertex="1" parent="1">
          <mxGeometry x="140" y="359" width="120" height="60" as="geometry" />
        </mxCell>
        <mxCell id="yerlcY6fGcBEayFtujhV-2" style="edgeStyle=orthogonalEdgeStyle;rounded=0;orthogonalLoop=1;jettySize=auto;html=1;entryX=0.506;entryY=0.146;entryDx=0;entryDy=0;entryPerimeter=0;" edge="1" parent="1" source="dUpurtsWNDvEeiz36VMN-48" target="dUpurtsWNDvEeiz36VMN-51">
          <mxGeometry relative="1" as="geometry" />
        </mxCell>
      </root>
    </mxGraphModel>
  </diagram>
</mxfile>
